<?xml version="1.0" encoding="utf-8"?>
<!-- Generator: Adobe Illustrator 24.1.2, SVG Export Plug-In . SVG Version: 6.00 Build 0)  -->
<svg version="1.1" id="Calque_1" xmlns="http://www.w3.org/2000/svg" xmlns:xlink="http://www.w3.org/1999/xlink" x="0px" y="0px"
	 viewBox="0 0 50 50" style="enable-background:new 0 0 50 50;" xml:space="preserve">
<style type="text/css">
	.st0{fill:#F9C8C0;}
	.st1{fill:#EA524E;}
	.st2{fill:#FFFFFF;}
	.st3{fill:#242B57;}
	.st4{fill:#FFF5E6;}
	.st5{fill:#F59082;}
	.st6{opacity:0.66;fill:#F59082;}
	.st7{fill:#72391B;}
	.st8{fill:#BC3535;}
</style>
<g>
	<g>
		<path class="st0" d="M34.9,23.7l0.8-0.5c0.4-0.3,1-0.2,1.3,0.2l0.2,0.3c0.3,0.4,0.2,1-0.2,1.3l-0.8,0.5c-0.4,0.3-1,0.2-1.3-0.2
			L34.7,25C34.4,24.6,34.5,24,34.9,23.7z"/>
		<path class="st0" d="M36.4,24.7l1.9-1.4c0.1-0.1,0.3-0.1,0.4,0.1l0,0c0.1,0.1,0.1,0.3-0.1,0.4l-1.9,1.4c-0.1,0.1-0.3,0.1-0.4-0.1
			v0C36.3,25,36.3,24.8,36.4,24.7z"/>
		<path class="st0" d="M36.5,23.6l1.5-1.1c0.1-0.1,0.3-0.1,0.4,0.1l0,0c0.1,0.1,0.1,0.3-0.1,0.4l-1.5,1.1c-0.1,0.1-0.3,0.1-0.4-0.1
			h0C36.4,23.9,36.4,23.7,36.5,23.6z"/>
		<path class="st0" d="M35.8,23.2l1.8-1.3c0.1-0.1,0.3-0.1,0.4,0.1l0,0c0.1,0.1,0.1,0.3-0.1,0.4l-1.8,1.3c-0.1,0.1-0.3,0.1-0.4-0.1
			l0,0C35.6,23.5,35.6,23.3,35.8,23.2z"/>
	</g>
	<path class="st0" d="M31.1,27.3c-1.1,0-2-0.3-2.8-0.8c-3.3-2.4-2.9-6.5-2.9-6.6c0.1-0.6,0.6-1.1,1.3-1.1c0.6,0.1,1.1,0.6,1.1,1.3
		c0,0.1-0.2,2.9,1.9,4.5c1.3,0.9,3.8-0.1,4.6-0.5c0.6-0.3,1.3-0.1,1.6,0.5c0.3,0.6,0.1,1.3-0.5,1.6c0,0-1.1,0.6-2.4,0.9
		C32.4,27.2,31.7,27.3,31.1,27.3z"/>
	<path class="st1" d="M25.4,23.9l3.4-0.7L28,19.8c-0.2-0.9-1.1-1.5-2.1-1.3h0c-0.9,0.2-1.5,1.1-1.3,2.1L25.4,23.9z"/>
</g>
<path class="st0" d="M13.9,45.4l-1.6-1.9c0,0,4.9-2,5.8-3.5c0.7-1.2,0.5-5.6,0.5-5.6l2.2,1.3c0,0,0.3,4.3-0.4,5.4
	C19.5,42.7,13.9,45.4,13.9,45.4z"/>
<path class="st2" d="M13.4,47.9l-2.1-4.1l1.7-0.9l1.3,2.6C14.9,46.6,14.5,47.3,13.4,47.9L13.4,47.9z"/>
<g>
	<polygon class="st0" points="26.4,47.9 23.9,47.9 24.4,34.8 26.9,34.8 	"/>
	<path class="st2" d="M27.9,49.6l-4.2-0.1l0-1.9l2.3,0.1C27.2,47.7,28,48.5,27.9,49.6L27.9,49.6z"/>
</g>
<rect x="23.7" y="49.4" transform="matrix(-0.999 -4.374855e-02 4.374855e-02 -0.999 49.4469 100.3551)" class="st3" width="4.2" height="0.5"/>
<rect x="17" y="35" transform="matrix(-1 -1.224647e-16 1.224647e-16 -1 38.6357 75.2908)" class="st1" width="4.7" height="5.4"/>
<rect x="22.9" y="34.8" transform="matrix(-1 -1.224647e-16 1.224647e-16 -1 50.5717 75.0596)" class="st1" width="4.7" height="5.4"/>
<rect x="17" y="34.7" transform="matrix(-1 -1.224647e-16 1.224647e-16 -1 44.056 72.7725)" class="st1" width="10" height="3.5"/>
<path class="st4" d="M17,34.9h11L27.6,23c0-3-2.1-6.2-5.1-6.2l0,0c-3,0-5.5,2.5-5.5,5.5V34.9z"/>
<path class="st3" d="M22.8,15.8l2.8-1.4c3.1-1.6,4.4-5.4,2.8-8.5l-1.2-2.4c-1.6-3.1-5.4-4.4-8.5-2.8l-2.8,1.4
	c-3.1,1.6-4.4,5.4-2.8,8.5l1.2,2.4C15.9,16.2,19.7,17.4,22.8,15.8z"/>
<path class="st0" d="M28.8,6.1l0.5,1.9c0,0.1,0,0.3,0,0.4c0.2,0.8,0.2,1.7,0,2.5c-0.4,2.5-2.2,4.6-4.8,5.4l-0.2,0.1
	c-3.5,1-7.3-1.1-8.2-4.6l-0.5-1.9c-1-3.5,1.2-6.9,4.8-7.9l0.2-0.1C24.1,0.9,27.8,2.6,28.8,6.1z"/>
<path class="st2" d="M27.3,11c0.2,0.8-0.3,2.1-1.3,2.4c-1,0.3-2.1-0.5-2.4-1.3L27.3,11z"/>
<polygon class="st5" points="21.2,10.7 21.2,10.7 21.2,10.7 21.2,10.7 "/>
<ellipse transform="matrix(0.9474 -0.3201 0.3201 0.9474 -2.7534 7.2812)" class="st6" cx="20.8" cy="12" rx="1.2" ry="1.2"/>
<path class="st6" d="M29.3,8.5c0.2,0.8,0.2,1.7,0.1,2.5c-0.6,0-1.1-0.3-1.3-0.9c-0.2-0.7,0.2-1.3,0.9-1.5C29,8.5,29.2,8.5,29.3,8.5z
	"/>
<path class="st0" d="M22.3,18.9L22.3,18.9c-0.7,0-1.2-0.6-1.2-1.3v-2.9h2.5v2.9C23.6,18.3,23,18.9,22.3,18.9z"/>
<path class="st3" d="M22.1,5.7L19,7.1c-1.5,0.7-2.3,2.2-1.9,3.8v0L16.5,14c0,0-1.6-1.3-2.2-4.2c-0.6-2.9,1.1-8.7,8.2-8.2L22.1,5.7z"
	/>
<path class="st0" d="M17.9,11.5c0.2,0.8-0.2,1.6-1,1.8l0,0c-0.8,0.2-1.6-0.2-1.8-1l0,0c-0.2-0.8,0.2-1.6,1-1.8l0,0
	C16.9,10.3,17.7,10.7,17.9,11.5L17.9,11.5z"/>
<path class="st7" d="M21.3,9.9C21.3,9.9,21.3,9.9,21.3,9.9c-0.2,0-0.3-0.1-0.2-0.3c0,0,0.1-0.8,0.9-1.1C22.7,8.3,23.3,9,23.4,9
	c0.1,0.1,0.1,0.3,0,0.3c-0.1,0.1-0.3,0.1-0.3,0c0,0-0.4-0.4-0.9-0.3c-0.5,0.2-0.5,0.6-0.5,0.7C21.5,9.8,21.4,9.9,21.3,9.9z"/>
<path class="st7" d="M25.8,8.6C25.8,8.6,25.8,8.6,25.8,8.6c-0.2,0-0.3-0.1-0.2-0.3c0,0,0.1-0.8,0.9-1.1c0.8-0.3,1.4,0.4,1.4,0.4
	C28,7.8,28,7.9,27.9,8c-0.1,0.1-0.3,0.1-0.3,0c0,0-0.4-0.4-0.9-0.3c-0.5,0.2-0.5,0.6-0.5,0.7C26.1,8.5,26,8.6,25.8,8.6z"/>
<rect x="16.7" y="39.2" class="st8" width="5.1" height="1.2"/>
<rect x="22.9" y="39.2" class="st8" width="5.1" height="1.2"/>
<path class="st3" d="M27.8,2.7L21.4,3c-0.5,0-0.9-0.4-0.9-0.8l0-0.4c0-0.5,0.4-0.9,0.8-0.9l6.4-0.3c0.5,0,0.9,0.4,0.9,0.8l0,0.4
	C28.7,2.2,28.3,2.6,27.8,2.7z"/>
<path class="st3" d="M17.2,8.4l0.1,0.3c0.3,0.7,1,0.9,1.7,0.6h0c0.6-0.3,0.8-1,0.6-1.5L19.2,7l1.7,0.9C21.1,8,21.5,8,21.8,7.9l0,0
	c0.7-0.3,0.9-1.2,0.4-1.8l-0.6-0.6l3.1,1c0.2,0.1,0.4,0.1,0.6,0l0,0c0.7-0.2,0.9-1.2,0.4-1.7L24.9,4l2.5,1.2c0.4,0.2,1,0.1,1.3-0.2
	l0,0c0.6-0.6,0.4-1.5-0.3-1.9c-1.9-0.9-5.1-2.1-7-1.6C18.5,2.2,17.2,8.4,17.2,8.4z"/>
<g>
	<g>
		<path class="st0" d="M25.8,27.1l0.9-0.3c0.5-0.2,1,0.1,1.2,0.6l0.1,0.4c0.2,0.5-0.1,1-0.6,1.2l-0.9,0.3c-0.5,0.2-1-0.1-1.2-0.6
			l-0.1-0.4C25.1,27.8,25.3,27.3,25.8,27.1z"/>
		<path class="st0" d="M27,28.5l2.2-0.7c0.2-0.1,0.3,0,0.4,0.2l0,0c0.1,0.2,0,0.3-0.2,0.4l-2.2,0.7c-0.2,0.1-0.3,0-0.4-0.2l0,0
			C26.7,28.7,26.8,28.5,27,28.5z"/>
		<path class="st0" d="M27.4,27.5l1.8-0.6c0.2-0.1,0.3,0,0.4,0.2l0,0c0.1,0.2,0,0.3-0.2,0.4L27.6,28c-0.2,0.1-0.3,0-0.4-0.2l0,0
			C27.1,27.7,27.2,27.5,27.4,27.5z"/>
		<path class="st0" d="M26.8,26.9l2.1-0.7c0.2-0.1,0.3,0,0.4,0.2l0,0c0.1,0.2,0,0.3-0.2,0.4L27,27.5c-0.2,0.1-0.3,0-0.4-0.2l0,0
			C26.5,27.1,26.6,26.9,26.8,26.9z"/>
	</g>
	<path class="st0" d="M23.7,29.7c-0.2,0-0.4,0-0.6,0c-2-0.1-3.5-0.8-4.3-2c-2.4-3.3-0.9-7-0.8-7.2c0.3-0.6,0.9-0.9,1.5-0.6
		c0.6,0.3,0.9,0.9,0.6,1.5c0,0.1-1.1,2.7,0.5,4.9c0.9,1.3,3.7,1.1,4.6,0.9c0.6-0.1,1.3,0.3,1.4,0.9c0.1,0.6-0.3,1.3-0.9,1.4
		C25.6,29.6,24.7,29.7,23.7,29.7z"/>
	<path class="st1" d="M16.7,24.4l3.4,0.3l0.3-3.4c0.1-0.9-0.6-1.8-1.6-1.9h0c-0.9-0.1-1.8,0.6-1.9,1.6L16.7,24.4z"/>
</g>
<polygon class="st3" points="13.1,48 10.9,43.9 11.4,43.7 13.5,47.8 "/>
</svg>
