<?xml version="1.0" encoding="utf-8"?>
<!-- Generator: Adobe Illustrator 24.1.2, SVG Export Plug-In . SVG Version: 6.00 Build 0)  -->
<svg version="1.1" id="Calque_1" xmlns="http://www.w3.org/2000/svg" xmlns:xlink="http://www.w3.org/1999/xlink" x="0px" y="0px"
	 viewBox="0 0 50 50" style="enable-background:new 0 0 50 50;" xml:space="preserve">
<style type="text/css">
	.st0{fill:#F9C8C0;}
	.st1{fill:#F494A3;}
	.st2{fill:#FFFFFF;}
	.st3{fill:#4D3E91;}
	.st4{fill:#242B57;}
	.st5{fill:#DD5C52;}
	.st6{fill:#F59082;}
	.st7{opacity:0.66;fill:#F59082;}
	.st8{fill:#72391B;}
</style>
<g>
	<g>
		<g>
			<path class="st0" d="M13.9,27.5l-0.5-0.3c-0.6-0.4-1.4-0.3-1.8,0.3l0,0c-0.4,0.6-0.3,1.4,0.3,1.8l0.5,0.3
				c0.6,0.4,1.4,0.3,1.8-0.3l0,0C14.6,28.7,14.5,27.9,13.9,27.5z"/>
			<path class="st0" d="M12.4,28.7l-2.1-1.5c-0.2-0.1-0.4-0.1-0.5,0.1l0,0c-0.1,0.2-0.1,0.4,0.1,0.5l2.1,1.5
				c0.2,0.1,0.4,0.1,0.5-0.1l0,0C12.6,29.1,12.6,28.8,12.4,28.7z"/>
			<path class="st0" d="M12.3,27.5l-1.7-1.2c-0.2-0.1-0.4-0.1-0.5,0.1l0,0c-0.1,0.2-0.1,0.4,0.1,0.5l1.7,1.2
				c0.2,0.1,0.4,0.1,0.5-0.1l0,0C12.5,27.8,12.5,27.6,12.3,27.5z"/>
			<path class="st0" d="M13.2,27.1l-2-1.4c-0.2-0.1-0.4-0.1-0.5,0.1l0,0c-0.1,0.2-0.1,0.4,0.1,0.5l2,1.4c0.2,0.1,0.4,0.1,0.5-0.1
				l0,0C13.4,27.4,13.3,27.2,13.2,27.1z"/>
		</g>
		<path class="st0" d="M18.3,31.6c-0.7,0-1.4-0.1-2.1-0.3c-1.5-0.4-2.6-1-2.7-1c-0.6-0.3-0.9-1.1-0.5-1.8c0.3-0.6,1.1-0.9,1.8-0.5
			c0.9,0.5,3.8,1.6,5.1,0.6c2.4-1.8,2.2-4.9,2.2-5c-0.1-0.7,0.5-1.4,1.2-1.4c0.7-0.1,1.4,0.5,1.4,1.2c0,0.2,0.4,4.7-3.2,7.4
			C20.6,31.3,19.5,31.6,18.3,31.6z"/>
		<path class="st1" d="M24.7,27.8L21,27l0.8-3.7c0.2-1,1.3-1.7,2.3-1.5l0,0c1,0.2,1.7,1.3,1.5,2.3L24.7,27.8z"/>
	</g>
	<g>
		<path class="st0" d="M36.5,47.6l0.1-2.8c0,0-3.3,1.2-5.3,1.2c-1.5,0-1.1-4.5-1.1-4.5l-2.8,1.1c0,0-0.8,6,3.3,6.2
			C32.8,48.8,36.5,47.6,36.5,47.6z"/>
		<g>
			<path class="st2" d="M36,44.6c0.3,0,2.2,0,2.2,0l-0.1,3.3l-2.2-0.1L36,44.6z"/>
		</g>
		<path class="st2" d="M39,49.2l0.1-4.6l-2.2-0.1l-0.1,2.6C36.8,48.3,37.7,49.2,39,49.2L39,49.2z"/>
	</g>
	<polygon class="st3" points="31.5,40.4 20.4,40.4 20.7,35.8 31.5,37.9 	"/>
	<polygon class="st3" points="31.8,44.4 26.6,44.6 26.3,39.1 31.6,37.6 	"/>
	
		<rect x="36.9" y="46.6" transform="matrix(1.593299e-02 -0.9999 0.9999 1.593299e-02 -8.2721 85.444)" class="st4" width="4.7" height="0.6"/>
	<g>
		<path class="st0" d="M15.5,46.8l2.8,0.1c0,0-1.1-3.3-1-5.3c0.1-1.5,4.6-1,4.6-1l-1.1-2.8c0,0-5.9-0.9-6.2,3.2
			C14.4,43.1,15.5,46.8,15.5,46.8z"/>
		<g>
			<path class="st2" d="M18.6,46.4c0,0.3-0.1,2.2-0.1,2.2l-3.3-0.1l0.1-2.2L18.6,46.4z"/>
		</g>
		<path class="st2" d="M13.9,49.3l4.6,0.2l0.1-2.2l-2.6-0.1C14.8,47.1,13.9,48,13.9,49.3L13.9,49.3z"/>
	</g>
	<polygon class="st3" points="19.6,41.9 18.3,37 24.3,37 26.8,40.3 	"/>
	
		<rect x="13.8" y="49.3" transform="matrix(0.9994 3.590411e-02 -3.590411e-02 0.9994 1.7918 -0.5491)" class="st4" width="4.7" height="0.6"/>
	<path class="st1" d="M31.6,24.2v14L20.1,37l0.3-12c0-2.5,1.2-5.1,3.1-6.3c0.7-0.4,1.4-0.6,2.2-0.6c0.6,0,1.2,0.1,1.7,0.3
		c0.9,0.3,1.7,0.8,2.4,1.5C30.9,21,31.6,22.6,31.6,24.2z"/>
	<path class="st2" d="M27.6,19c0,1.1-0.9,2-2,2c-1.1,0-2-0.7-2-2c0-0.1,0-0.2,0-0.2c0.7-0.4,1.4-0.6,2.2-0.6c0.6,0,1.2,0.1,1.7,0.3
		C27.5,18.7,27.6,19,27.6,19z"/>
	<path class="st5" d="M23.3,16.2L22.8,16c-4.2-2.1-5.8-7.2-3.7-11.4l0,0c2.1-4.2,7.2-5.8,11.4-3.7L31,1.2c4.2,2.1,5.8,7.2,3.7,11.4
		l0,0C32.6,16.7,27.5,18.4,23.3,16.2z"/>
	<path class="st0" d="M18.4,6.2l-0.6,2.2c0,0.1,0,0.3,0,0.4c-0.2,0.9-0.2,1.9,0,2.8c0.4,2.7,2.5,5.2,5.3,6l0.2,0.1
		c3.9,1.1,8.1-1.3,9.2-5.2l0.6-2.2c1.1-3.9-1.4-7.7-5.3-8.8l-0.2-0.1C23.7,0.3,19.5,2.3,18.4,6.2z"/>
	<polygon class="st6" points="26.8,11.3 26.8,11.3 26.8,11.3 26.8,11.3 	"/>
	<path class="st7" d="M22,10.8l0.9,0.2c0.2,0,0.3-0.1,0.4-0.2l0,0c0-0.2-0.1-0.3-0.2-0.4l-0.9-0.2c-0.2,0-0.3,0.1-0.4,0.2l0,0
		C21.7,10.6,21.8,10.8,22,10.8z"/>
	<path class="st7" d="M26,12.4c-0.2,0.7,0.2,1.5,1,1.7c0.7,0.2,1.5-0.2,1.7-1c0.2-0.7-0.2-1.5-1-1.7S26.2,11.7,26,12.4z"/>
	<path class="st7" d="M17.9,8.8c-0.2,0.9-0.2,1.9-0.1,2.8c0.6,0,1.2-0.4,1.4-1c0.2-0.7-0.2-1.5-1-1.7C18.1,8.8,18,8.8,17.9,8.8z"/>
	<path class="st0" d="M25.6,20.4L25.6,20.4c0.8,0,1.4-0.6,1.4-1.4v-3.2h-2.8V19C24.2,19.8,24.8,20.4,25.6,20.4z"/>
	<path class="st5" d="M24.6,4.9L19.2,3c-0.8-0.3-1.2-1-0.9-1.7l0,0c0.3-0.7,1.2-1,2-0.7l5.5,1.9c0.8,0.3,1.2,1,0.9,1.7l0,0
		C26.3,4.8,25.4,5.2,24.6,4.9z"/>
	<path class="st5" d="M25.6,5.6L29,7.1c1.6,0.7,2.5,2.5,2.2,4.2l0,0l0.6,3.4c0,0,1.8-1.4,2.5-4.6C35,6.9,31.6-3,22.1,1.6L25.6,5.6z"
		/>
	<path class="st5" d="M27.1,6.2C26.4,5.9,18,5.2,18,5.2c-0.7-0.1-1.2-0.7-1.1-1.3l0,0c0.1-0.6,0.8-1,1.5-1l8.2,0.9
		c0.7,0.1,1.2,0.7,1.1,1.3l0,0C27.6,5.7,27.8,6.5,27.1,6.2z"/>
	<g>
		<path class="st8" d="M20.6,8.4L20.6,8.4c-0.2-0.1-0.3-0.3-0.3-0.5l0.2-0.7C20.6,7.1,20.8,7,21,7l0,0c0.2,0.1,0.3,0.3,0.3,0.5
			l-0.2,0.7C21.1,8.4,20.8,8.5,20.6,8.4z"/>
		<path class="st8" d="M25.6,10.1L25.6,10.1c-0.2-0.1-0.3-0.3-0.3-0.5l0.2-0.7c0.1-0.2,0.3-0.3,0.5-0.3l0,0c0.2,0.1,0.3,0.3,0.3,0.5
			l-0.2,0.7C26,10,25.8,10.1,25.6,10.1z"/>
	</g>
	<circle class="st0" cx="31.8" cy="12.8" r="1.5"/>
	<ellipse class="st2" cx="25.3" cy="26.3" rx="2.7" ry="3.8"/>
	<path class="st6" d="M22.4,13.7c-0.4,0-0.6-0.1-0.7-0.1c-0.1,0-0.1-0.1-0.1-0.2c0-0.1,0.1-0.1,0.2-0.1c0.1,0,1.5,0.4,2.7-1
		c0.1-0.1,0.2-0.1,0.2,0c0.1,0.1,0.1,0.2,0,0.2c-0.7,0.8-1.5,1-2,1.1C22.7,13.7,22.5,13.7,22.4,13.7z"/>
	<g>
		<g>
			<path class="st0" d="M23.6,31.2L23,31.1c-0.7-0.1-1.3,0.4-1.5,1.1l0,0c-0.1,0.7,0.4,1.3,1.1,1.5l0.6,0.1c0.7,0.1,1.3-0.4,1.5-1.1
				l0,0C24.8,32,24.3,31.3,23.6,31.2z"/>
			<path class="st0" d="M22.8,33l-2.6-0.4c-0.2,0-0.4,0.1-0.4,0.3l0,0c0,0.2,0.1,0.4,0.3,0.4l2.6,0.4c0.2,0,0.4-0.1,0.4-0.3l0,0
				C23.1,33.2,23,33,22.8,33z"/>
			<path class="st0" d="M22.2,31.9l-2.1-0.3c-0.2,0-0.4,0.1-0.4,0.3l0,0c0,0.2,0.1,0.4,0.3,0.4l2.1,0.3c0.2,0,0.4-0.1,0.4-0.3l0,0
				C22.5,32.1,22.4,32,22.2,31.9z"/>
			<path class="st0" d="M22.8,31.2l-2.4-0.4c-0.2,0-0.4,0.1-0.4,0.3v0c0,0.2,0.1,0.4,0.3,0.4l2.4,0.4c0.2,0,0.4-0.1,0.4-0.3l0,0
				C23.1,31.4,23,31.2,22.8,31.2z"/>
		</g>
		<path class="st0" d="M24.6,33.9C24.6,33.9,24.5,33.9,24.6,33.9c-0.8,0-1.4-0.6-1.4-1.3c0-0.7,0.6-1.3,1.3-1.3c0,0,0,0,0,0
			c1,0,4.1-0.3,4.8-1.8c1.3-2.7-0.3-5.3-0.3-5.5c-0.4-0.6-0.2-1.4,0.4-1.8c0.6-0.4,1.4-0.2,1.8,0.4c0.1,0.2,2.5,4,0.5,8
			c-0.7,1.4-2.2,2.5-4.4,3C26.1,33.9,24.9,33.9,24.6,33.9z"/>
		<path class="st1" d="M33.4,26.6l-3.7,1l-0.9-3.6c-0.3-1,0.4-2.1,1.4-2.3l0,0c1-0.3,2.1,0.4,2.3,1.4L33.4,26.6z"/>
	</g>
</g>
</svg>
