<?xml version="1.0" encoding="utf-8"?>
<!-- Generator: Adobe Illustrator 24.1.2, SVG Export Plug-In . SVG Version: 6.00 Build 0)  -->
<svg version="1.1" id="Calque_1" xmlns="http://www.w3.org/2000/svg" xmlns:xlink="http://www.w3.org/1999/xlink" x="0px" y="0px"
	 viewBox="0 0 50 19.9" style="enable-background:new 0 0 50 19.9;" xml:space="preserve">
<style type="text/css">
	.st0{fill:#FFBF3E;}
	.st1{fill:#25B3B3;}
	.st2{fill:#EAA224;}
	.st3{fill:#0F9692;}
	.st4{fill:#FFD78F;}
	.st5{fill:#FFFFFF;}
	.st6{fill:#00C1E0;}
</style>
<g>
	<g>
		<path class="st0" d="M6.9,14.1c0,0,1.4,1.1,3.2,1.1c1.5,0,2.7-0.9,3.2-2.3c0.3-1,0.2-1.8,0.2-1.8h-1c0,0,0,1-0.4,1.8
			c-0.3,0.7-1.3,1.3-2.2,1.2c-1.3-0.1-2.2-0.8-2.2-0.8L6.9,14.1z"/>
		<rect x="7.1" y="12.2" class="st1" width="2.9" height="0.7"/>
		<rect x="10" y="11.1" class="st1" width="0.7" height="2.6"/>
		<g>
			<polygon class="st0" points="31.4,3.4 29.3,3.1 29.3,4.5 31.4,4.3 			"/>
			<polygon class="st2" points="31.4,4.8 31.4,4.3 29.3,4.5 29.3,5.2 			"/>
		</g>
		<g>
			<path class="st1" d="M3.2,7.1c0.4-0.5,0-1.6-0.3-2.2C1.6,5,0.4,5.3,0.4,5.3S-0.1,6.1,0,7.1c0,0.2,0.1,0.4,0.1,0.6
				C1.1,7.7,2.7,7.8,3.2,7.1z"/>
			<path class="st3" d="M4.9,8.3C5.6,7,6.1,5.1,4.5,5c-0.5,0-1,0-1.5,0c0.2,0.5,0.6,1.6,0.3,2.2C2.7,7.8,1.1,7.7,0.1,7.7
				c0.2,0.8,0.6,1.2,0.6,1.2S4.2,9.6,4.9,8.3z"/>
		</g>
		<g>
			<path class="st3" d="M13.1,1.6c-1.8-0.3-3.9,1.1-3.9,1.1c0.3,0.6,1,1.4,2.8,1.6c2.3,0.2,3.4-1.4,3.8-2.1
				C15.1,2.1,14.2,1.8,13.1,1.6z"/>
			<path class="st1" d="M13,1.8c1.1,0,2.1,0.3,2.7,0.5C15.8,2.1,15.9,2,15.9,2s-1.7-0.9-3.7-0.9C10.3,1.1,8.9,2,8.9,2s0,0.3,0.2,0.8
				C9.2,2.7,10.7,1.8,13,1.8z"/>
		</g>
		<g>
			<path class="st3" d="M25,9.9c0,0-1.4-1.9-4.7-1.6c-3.3,0.3-3.5,2.4-3.5,2.4s0.2,0.4,0.8,0.7c0.4-0.5,1-1,2.3-1.1
				c1.3-0.1,2.5,0.6,3.2,1.1C24.6,10.8,25,9.9,25,9.9z"/>
			<path class="st1" d="M17.6,11.4c0.6,0.3,1.6,0.6,3.2,0.5c0.9-0.1,1.7-0.2,2.2-0.5c-0.7-0.5-1.9-1.2-3.2-1.1
				C18.6,10.4,17.9,11,17.6,11.4z"/>
		</g>
		<g>
			<path class="st3" d="M21.4,0c-1.2,0.1-2.1,0.5-2.8,1c0.3,0.2,0.7,0.6,1.6,0.7C21.7,2,25,0.8,25,0.8l1.1,0.5c0,0-0.6,0.3-1.1,0.7
				c-0.9,0.6-1.1,1.9,0.3,2.1c2,0.3,4,0.4,4,0.4V2.9C29.3,2.9,24-0.2,21.4,0z"/>
			<path class="st1" d="M25,2c0.6-0.4,1.1-0.7,1.1-0.7L25,0.8c0,0-3.3,1.2-4.8,0.9c-0.9-0.2-1.3-0.5-1.6-0.7
				c-0.9,0.5-1.3,1.1-1.3,1.1l0.9,3.4h11.1v-1c0,0-2-0.1-4-0.4C23.9,3.9,24.1,2.6,25,2z"/>
		</g>
		<path class="st2" d="M0,5.1l0.2,0.5c0,0,3.2,0,3.8,0.6c0.5,0.6,0.4,1.2-0.3,1.7C3.1,8.3,0.3,8.3,0.3,8.3L0,8.8
			c0,0,0.9,1.2,2.1,1.1c2.2-0.2,5.5-0.4,4.2-3.2C5.1,3.9,1,4.5,0,5.1z"/>
		<g>
			<g>
				<path class="st0" d="M25.9,4.8c-2.3,0-5.3-0.1-6.3-1c-0.7-0.7-1.1-1.3-1.4-1.8c-0.6-0.2-1.5-0.4-2-0.5c-0.9-0.1-1.5,0.7-1.5,0.7
					l0,0c-0.8,1.1-1.3,0.8-2.9,0.9c-1.3,0.1-1.3-0.9-2.2-1.5C8.4,1.7,6.9,1.9,5.2,2.3C3.2,2.7,1.8,4.2,1,5.1c1,0,2.5,0.2,3,0.5
					c1.7,1,0.8,2.4,0,2.8C2.9,8.9,0,8.8,0,8.8s0.1,0.6,0.7,1.3c1.8,0.2,4.9,0.4,5.4,0.4c2.1,0,8,0.4,9.6-0.2C17,9.8,16.6,9,19.1,8.4
					c2.8-0.6,4.2,0.5,5.3,1c1.1,0.4,2,0.2,3.4-1.5c0.8-1,1.1-2,1.1-2.6C28.3,5.1,27.2,4.8,25.9,4.8z"/>
				<path class="st4" d="M17.9,1.5c-0.1,0.1-2-1.2-3,0.4c-0.1,0.1-0.2,0.3-0.2,0.4l0,0c0,0,0.6-0.8,1.5-0.7c0.5,0.1,1.4,0.3,2,0.5
					C18,1.7,17.9,1.5,17.9,1.5z"/>
				<path class="st4" d="M5.2,2.3c1.7-0.4,3.2-0.5,4.4-0.6C9.4,1.5,9.1,1.4,8.8,1.3c-0.7-0.1-3.3,0-5.7,1.1c-2.2,1-3,2.6-3,2.6
					s0.4,0,1,0C1.8,4.2,3.2,2.7,5.2,2.3z"/>
			</g>
			<path class="st2" d="M15.3,11.8c1.8,0,1.8-0.5,2.2-1.1c0.4-0.7,1.2-1.4,3.5-1.4c1.3,0,2.6,0.5,3.2,1.2c0.5,0.6,1.5,0.3,2.1,0
				c1.5-0.6,2.9-1.8,3.4-5c0,0-0.3-0.2-0.8-0.3c0,0.7-0.3,1.6-1.1,2.6c-1.4,1.7-2.3,1.9-3.4,1.5c-1.1-0.4-2.6-1.6-5.3-1
				C16.6,9,17,9.8,15.7,10.3c-1.5,0.6-7.4,0.2-9.6,0.2c-0.5,0-3.6-0.3-5.4-0.4c0.3,0.4,0.8,0.8,1.5,1.1c0,0,0.1,0,0.1,0.1
				c1.5,0.2,4,0.4,5.7,0.4C8,11.8,14,11.8,15.3,11.8z"/>
		</g>
		<ellipse class="st2" cx="12.2" cy="5.9" rx="3.6" ry="2.3"/>
		<ellipse class="st3" cx="12.4" cy="5.8" rx="3" ry="1.7"/>
		<g>
			<path class="st5" d="M23.9,5.5c-0.3-0.2-0.8,0.1-1.1,0.3c-0.4,0.3-0.5,0.9-0.6,1.6c0.2-0.2,0.3-0.5,0.6-0.7
				c0.3-0.2,0.6-0.3,0.9-0.5C24,6.1,24.2,5.7,23.9,5.5z"/>
			<path class="st5" d="M5.6,3C5.4,2.7,4.8,2.8,4.5,2.9C4,3,3.6,3.5,3.3,4.1C3.6,4,3.8,3.8,4.1,3.7c0.3-0.1,0.7,0,1-0.1
				C5.4,3.6,5.8,3.4,5.6,3z"/>
			<path class="st5" d="M25.5,6.9c-0.2-0.3-0.7-0.3-1-0.2c-0.4,0.1-0.7,0.4-1,0.8c0.3-0.1,0.5-0.2,0.8-0.2c0.3,0,0.6,0.1,0.9,0.1
				C25.4,7.3,25.6,7.2,25.5,6.9z"/>
			<path class="st5" d="M5.9,4.8c0-0.4-0.5-0.6-0.8-0.7C4.8,4,4.3,4.2,3.9,4.4c0.3,0,0.5,0.1,0.8,0.2C4.9,4.7,5.2,5,5.4,5.1
				C5.7,5.2,5.9,5.1,5.9,4.8z"/>
			<path class="st5" d="M25.6,5.9c0,0.2-0.1,0.3-0.3,0.3c-0.2,0-0.3-0.1-0.3-0.3s0.1-0.3,0.3-0.3C25.5,5.6,25.6,5.8,25.6,5.9z"/>
			<path class="st5" d="M26.6,7.5c0,0.2-0.1,0.3-0.3,0.3c-0.2,0-0.3-0.1-0.3-0.3c0-0.2,0.1-0.3,0.3-0.3C26.5,7.2,26.6,7.4,26.6,7.5z
				"/>
			<path class="st5" d="M21.5,7.4c0,0.2-0.1,0.3-0.3,0.3c-0.2,0-0.3-0.1-0.3-0.3c0-0.2,0.1-0.3,0.3-0.3C21.4,7.1,21.5,7.2,21.5,7.4z
				"/>
			<path class="st5" d="M6.7,2.8c0,0.2-0.1,0.3-0.3,0.3C6.2,3.1,6.1,3,6.1,2.8c0-0.2,0.1-0.3,0.3-0.3C6.5,2.5,6.7,2.6,6.7,2.8z"/>
			<path class="st5" d="M6.4,4c0,0.2-0.1,0.3-0.3,0.3C5.9,4.3,5.8,4.1,5.8,4c0-0.2,0.1-0.3,0.3-0.3C6.2,3.7,6.4,3.8,6.4,4z"/>
			<path class="st5" d="M20.6,6.4c0,0.2-0.1,0.3-0.3,0.3c-0.2,0-0.3-0.1-0.3-0.3c0-0.2,0.1-0.3,0.3-0.3C20.5,6.1,20.6,6.2,20.6,6.4z
				"/>
			<path class="st5" d="M22,5.9c0,0.3-0.2,0.5-0.5,0.5s-0.5-0.2-0.5-0.5s0.2-0.5,0.5-0.5S22,5.7,22,5.9z"/>
			<path class="st5" d="M7.9,3.8c0,0.3-0.2,0.5-0.5,0.5S7,4.1,7,3.8s0.2-0.5,0.5-0.5S7.9,3.5,7.9,3.8z"/>
			<path class="st5" d="M27.3,6.4c0,0.3-0.2,0.5-0.5,0.5s-0.5-0.2-0.5-0.5c0-0.3,0.2-0.5,0.5-0.5S27.3,6.2,27.3,6.4z"/>
		</g>
		<ellipse class="st1" cx="11.7" cy="5.8" rx="1.7" ry="1"/>
		<g>
			<path class="st3" d="M3.9,12.9c-0.5-0.2-1.1-0.4-1.5-0.5c0,0.1,0,0.2,0,0.3c0.2,0.1,0.4,0.1,0.6,0.2c0.4,0.2,0.2,0.7,0,1.1
				c-0.2,0.5-0.6,1.3-0.8,1.8c-0.2,0.3-0.3,0.8-1,0.6c-0.1,0-0.3-0.1-0.5-0.2c-0.1,0.2-0.2,0.3-0.3,0.5c0.3,0.2,0.6,0.3,0.9,0.5
				c0.8,0.4,1.2,0.1,1.4-0.2c0.2-0.5,1.1-2.1,1.4-2.5C4.3,13.9,4.6,13.2,3.9,12.9z"/>
			<path class="st1" d="M2.2,15.8C2.4,15.3,2.7,14.5,3,14c0.2-0.5,0.4-1,0-1.1c-0.2-0.1-0.4-0.2-0.6-0.2c-0.2,1.1-0.7,2.2-1.3,2.9
				c-0.2,0.2-0.3,0.4-0.4,0.6c0.2,0.1,0.4,0.2,0.5,0.2C1.8,16.7,2,16.1,2.2,15.8z"/>
		</g>
		<g>
			<path class="st0" d="M5.9,15.2c-0.4-0.4,0.1-0.9,0.5-0.8c0.2,0.1,0.5,0.3,0.8,0.4c0.1-0.1,0.1-0.2,0.2-0.2C8,13.9,8,11.8,8,11.8
				c-1.7,0-4.2-0.2-5.7-0.4c0.1,0.3,0.1,0.7,0,1c0.4,0.1,1,0.3,1.5,0.5c0.7,0.3,0.4,1,0.1,1.5c-0.3,0.5-1.1,2.1-1.4,2.5
				c-0.2,0.3-0.5,0.6-1.4,0.2c-0.4-0.2-0.7-0.3-0.9-0.5c-0.4,0.6-0.5,1.1-0.1,1.5c0.6,0.5,2.2,1,3.2,1.6c0.9,0.5,1.4,0,1.6-0.9
				c-0.2-0.1-0.5-0.2-0.8-0.4c-0.6-0.3-0.1-1.2,0.5-0.9c0.1,0.1,0.4,0.2,0.6,0.4c0.1-0.2,0.2-0.4,0.3-0.7c-0.2-0.1-0.4-0.2-0.6-0.4
				c-0.4-0.4,0-1.1,0.5-0.8c0.2,0.1,0.4,0.2,0.6,0.4c0.1-0.2,0.2-0.4,0.4-0.6C6.3,15.6,6.1,15.4,5.9,15.2z"/>
			<path class="st2" d="M6.4,14.4c-0.4-0.1-0.9,0.4-0.5,0.8c0.2,0.2,0.4,0.4,0.6,0.5c0.2-0.3,0.4-0.6,0.7-0.9
				C6.9,14.7,6.6,14.5,6.4,14.4z"/>
			<path class="st2" d="M5,16.7c0.2,0.2,0.4,0.3,0.6,0.4c0.1-0.3,0.3-0.6,0.5-0.9c-0.2-0.1-0.4-0.3-0.6-0.4C5,15.6,4.6,16.4,5,16.7z
				"/>
			<path class="st2" d="M4.2,18.4c0.4,0.2,0.6,0.3,0.8,0.4c0-0.1,0.1-0.3,0.1-0.4c0-0.1,0.1-0.4,0.2-0.6c-0.2-0.1-0.5-0.3-0.6-0.4
				C4.2,17.2,3.7,18.1,4.2,18.4z"/>
		</g>
	</g>
	<path class="st6" d="M43.5,6.8c0,0,3.7,0.1,6,1.6c0.6,0.4,0.8,1.3-1,0.3C46.8,7.7,43.5,6.8,43.5,6.8z"/>
	<path class="st6" d="M33.5,4.1c0,0,9.2,0.1,11.2,0c2-0.1,3.4,0.3,3,0.5c-0.4,0.2-3.2,0.3-3.2,0.3s3.1,0.5,3.6,0.9
		c0.6,0.4-0.9,0.4-4.9-0.2C40.1,5.2,33.5,4.1,33.5,4.1z"/>
</g>
</svg>
