<?xml version="1.0" encoding="utf-8"?>
<!-- Generator: Adobe Illustrator 24.1.2, SVG Export Plug-In . SVG Version: 6.00 Build 0)  -->
<svg version="1.1" id="Calque_1" xmlns="http://www.w3.org/2000/svg" xmlns:xlink="http://www.w3.org/1999/xlink" x="0px" y="0px"
	 viewBox="0 0 50 36.3" style="enable-background:new 0 0 50 36.3;" xml:space="preserve">
<style type="text/css">
	.st0{fill:#8E246E;}
	.st1{fill:#B73D97;}
	.st2{fill:#FF6E2E;}
	.st3{fill:#7C1561;}
	.st4{fill:#ED571D;}
	.st5{fill:#FF8C5F;}
	.st6{fill:#00C1E0;}
</style>
<g>
	<g>
		<g>
			<path class="st0" d="M7.1,2.9C1.7,5,2,12.1,2,12.1l-0.7-1c0.1,2.7,1.3,5.4,3.3,7c2.1,1.7,6.2,3.1,9,3.1c7.2,0,16.9-4.3,20-6.2
				V7.7C29.5,5.7,15.4-0.3,7.1,2.9z"/>
			<path class="st1" d="M4.6,2.7c-2.2,1.7-3.5,4.7-3.3,7.7c0,0.2,0,0.4,0,0.7l0.7,1c0,0-0.3-7.1,5.2-9.2c8.2-3.2,22.4,2.8,26.6,4.8
				V5.9C30.5,3.9,13.5-4.1,4.6,2.7z"/>
		</g>
		<path class="st2" d="M16.9,25c0,0,1.8,0.2,2.9-0.2c1.1-0.5,1.9-2.9,0.9-3.2c-0.7-0.2-3.3,0-3.3,0L16.9,25z"/>
		<g>
			<path class="st0" d="M8.2,29.5c-0.3-2.2,1.5-3.8,4.6-5.2C16,22.9,16,20,16,20H20c0-0.4-0.1-0.6-0.1-0.6L3.7,15.8
				c0,0-1.6,3.3,0,4.7C5.2,21.9,6,22.2,6,23.8C6,25.8,2,30,2,32.9c-0.1,1.9,2.2,2.8,4.4,3.2C11,34.8,8.5,31.6,8.2,29.5z"/>
			<path class="st3" d="M9.7,36.1c3.3-0.7,1.8-3.4,1.8-6.2c0-1.1,1.1-3.4,4-3.8c4.6-0.7,4.7-4.5,4.6-6H16c0,0,0,2.9-3.1,4.3
				c-3.1,1.4-4.9,3-4.6,5.2c0.3,2.1,2.8,5.3-1.9,6.6C7.6,36.3,8.9,36.3,9.7,36.1z"/>
		</g>
		<path class="st4" d="M0.2,9.4l1.2-0.1c0,0,3.7,3.9,10.1,5c6.4,1,9.7-0.4,11.1-2.8c1.7-3.1-3.1-6.1-3.1-6.1l0.2-0.9
			c0,0,5.3,0.5,6,5c0.7,4.6-0.6,8.1-9.7,7.8C6.8,17,1.2,12.6,0.8,12C0.4,11.5,0.2,9.4,0.2,9.4z"/>
		<path class="st3" d="M17.4,8.9c-0.2,2.3-3.3,3.9-6.8,3.5c-3.5-0.3-6.2-2.5-6-4.8c0.2-2.3,3.3-3.9,6.8-3.5
			C14.9,4.4,17.6,6.6,17.4,8.9z"/>
		<path class="st1" d="M12.9,8.1c0,1.4-1.5,2.5-3.4,2.5C7.5,10.6,6,9.5,6,8.1c0-1.4,1.5-2.5,3.4-2.5C11.3,5.6,12.9,6.7,12.9,8.1z"/>
		<g>
			<path class="st2" d="M20.5,2.1l-0.9,2.3c0,0,3.2,1.2,4.2,4.2c0.8,2.2,0.3,4.7-4.1,6.4c-4.2,1.6-9.2,0.7-14.9-2
				c-2.6-1.2-4.7-3.7-4.7-3.7s-1.5,5.2,4.1,9.4c3.2,2.4,8.6,3.8,13.3,2.8c6.5-1.3,10.3-3.1,10.3-3.1l3.5-12.7c-2-0.9-4.7-2-7.5-2.8
				C22.7,2.7,21.5,2.4,20.5,2.1z"/>
			<path class="st5" d="M27.4,1.8c-3-1.2-6.2-1.5-6.2-1.5l-0.7,1.9c1,0.2,2.1,0.5,3.3,0.9c2.9,0.8,5.5,1.9,7.5,2.8l0.5-1.7
				C31.9,4.1,30.1,2.9,27.4,1.8z"/>
		</g>
	</g>
	<path class="st6" d="M35.8,10.2c0,0,2.5-1.4,4.7-2.1c2.2-0.7,4.4-0.8,3.5,0.7C43.4,10,39.4,10.3,35.8,10.2z"/>
	<path class="st6" d="M35.3,11.8c0,0,5.3-0.9,8.6-0.5c2.8,0.3,5.4,0.9,5.8,1.5c0.5,0.6-0.1,1-0.9,0.9c-0.9-0.1-2.6-0.5-2.6-0.5
		s2.4,1.5,1.5,2.1c-1,0.6-2.3-0.5-4.2-1.6C40.8,11.9,37.8,12.2,35.3,11.8z"/>
</g>
</svg>
