<?xml version="1.0" encoding="utf-8"?>
<!-- Generator: Adobe Illustrator 24.1.2, SVG Export Plug-In . SVG Version: 6.00 Build 0)  -->
<svg version="1.1" id="Calque_1" xmlns="http://www.w3.org/2000/svg" xmlns:xlink="http://www.w3.org/1999/xlink" x="0px" y="0px"
	 viewBox="0 0 50 27.1" style="enable-background:new 0 0 50 27.1;" xml:space="preserve">
<style type="text/css">
	.st0{fill:#FFBF3E;}
	.st1{fill:#7C1561;}
	.st2{fill:#8E246E;}
	.st3{fill:#FFD78F;}
	.st4{fill:#B73D97;}
	.st5{fill:#00C1E0;}
</style>
<g>
	<g>
		<polygon class="st0" points="32.8,10 34.1,10.4 34.1,12.4 32.7,12.9 		"/>
		<g>
			<path class="st0" d="M7.8,16.2c0,0,1.4,0.3,2.3-0.3c0.9-0.6,1.8-2.6,1.8-2.6s-4.1-0.7-4.5,0C7.1,14,7.8,16.2,7.8,16.2z"/>
			<g>
				<path class="st1" d="M3.5,22.8c-1.2-2.4,0.7-6.1,0-7.5c-0.7-1.4-3-4.4-3-4.4c0.7,3.1,0.9,3,0.9,5c0,2.8-0.7,6.3-0.9,7.4
					c-0.2,1.4,0.6,4,4.3,3.7c2.9-0.2,4.2-2,4.4-3.5C7.2,25.6,4.8,25.2,3.5,22.8z"/>
			</g>
			<g>
				<path class="st0" d="M4.5,1.8C3.7,2,3.1,2.7,2.5,3c0,2.3-1.7,5,2.6,5.8c4.6,0.9,13.2,1.4,16.8,0c2-0.8,2.8-3.3,3.2-5
					C18.8,2,8.6,0.5,4.5,1.8z"/>
				<path class="st2" d="M24.6,4.5c-0.4,1.7-0.7,3.5-2.7,4.3c-3.6,1.4-12.2,0.9-16.8,0C0.8,8,2.5,5.3,2.5,3C1.5,3.5,0.8,4,0.3,4.5
					c-0.4,1.5-0.3,3.7,0.3,6.3c0,0,2.3,3,3,4.4c0.7,1.4-1.2,5.1,0,7.5c1.2,2.4,3.6,2.8,5.7,0.8c0.1-0.4,0.1-0.7,0-1
					c-0.2-1-0.8-3.5-0.1-3.7c1.4-0.4,4.6,0,5.6-0.8c0.7-0.6,1.3-1.6,1.8-2.4c0.6-0.9,1.1-1.1,2.1-1.3c1.6,0.1,14.5-0.8,14.5-0.8l0-4
					l-2-0.3c0,0,0.4-0.6,0.6-1.8C30.2,6.9,26.8,5.2,24.6,4.5z M14.1,16.5c-0.6,0.8-2.4,0.7-3.3,0.8c-0.8,0.1-2.1,0.1-2.5-1
					c-0.2-0.5-0.4-2.1,0.8-2.2c0.7-0.1,4-0.1,5.5,0C15.8,14,14.7,15.7,14.1,16.5z"/>
				<path class="st3" d="M13,0.1C7.3-0.2,4.1,0.4,2.3,1.7c0.1,0.2,0.2,0.6,0.2,0.9c0,0.1,0,0.2,0,0.4c0.6-0.3,1.2-0.6,2-0.8
					c7.4-1.6,14.4,0,20.2,2.3c0.1-0.6,0.3-1.2,0.5-1.7C21.7,1.4,17.6,0.2,13,0.1z"/>
				<path class="st4" d="M25.1,2.8c-0.2,0.5-0.3,1.1-0.5,1.7c0.3,0.1,5.6,2.4,7.2,3c0.1-0.2,0.2-0.9,0.2-1.1
					C30.1,5.3,27.8,4,25.1,2.8z"/>
				<path class="st4" d="M2.5,2.6c0-0.4-0.1-0.7-0.2-0.9C1.5,2.2,0.9,2.9,0.5,3.8C0.4,4,0.3,4.3,0.3,4.5C0.8,4,1.5,3.5,2.5,3
					C2.5,2.9,2.5,2.8,2.5,2.6z"/>
			</g>
		</g>
		<path class="st0" d="M25.1,13h-6.2c-0.3,0-0.6-0.3-0.6-0.6l0,0c0-0.3,0.3-0.6,0.6-0.6h6.2c0.3,0,0.6,0.3,0.6,0.6l0,0
			C25.7,12.7,25.4,13,25.1,13z"/>
		<path class="st0" d="M3.8,10.1c0,0.5-0.4,0.9-0.9,0.9C2.4,11,2,10.6,2,10.1c0-0.5,0.4-0.9,0.9-0.9C3.4,9.2,3.8,9.6,3.8,10.1z"/>
		<circle class="st0" cx="5.4" cy="12.3" r="1.2"/>
	</g>
	<path class="st5" d="M35.8,11.2c0,0,4.3-0.8,7.3-1.9c3.7-1.3,6.1,0.3,3,1.2C42.9,11.4,35.8,11.2,35.8,11.2z"/>
	<path class="st5" d="M38.9,11.9c0,0,6.9,1.1,8.8,2.2c1.9,1.1,3.8-0.1,0.5-1.3C45,11.6,38.9,11.9,38.9,11.9z"/>
</g>
</svg>
