<?xml version="1.0" encoding="utf-8"?>
<!-- Generator: Adobe Illustrator 24.1.2, SVG Export Plug-In . SVG Version: 6.00 Build 0)  -->
<svg version="1.1" id="Calque_1" xmlns="http://www.w3.org/2000/svg" xmlns:xlink="http://www.w3.org/1999/xlink" x="0px" y="0px"
	 viewBox="0 0 50 26" style="enable-background:new 0 0 50 26;" xml:space="preserve">
<style type="text/css">
	.st0{fill:#FFBF3E;}
	.st1{fill:#EAA224;}
	.st2{fill:#D8325A;}
	.st3{fill:#F24667;}
	.st4{fill:#FFD78F;}
	.st5{fill:#00C1E0;}
</style>
<g>
	<g>
		<g>
			<rect x="9.2" y="15.7" class="st0" width="4.5" height="0.6"/>
			<rect x="13.8" y="14.8" class="st0" width="0.7" height="2.6"/>
			<g>
				<polygon class="st0" points="35.3,10.1 38.2,10.4 38.2,12.8 34.9,13.1 				"/>
				<g>
					<g>
						<path class="st1" d="M5.5,0.8c0.2,0.4,0.3,0.8,0.3,1.3c0,1.8-1.5,3.3-3.3,3.3c-0.8,0-1.6-0.3-2.2-0.8c0.5,1.2,1.7,2.1,3.1,2.1
							c1.8,0,3.3-1.5,3.3-3.3C6.6,2.3,6.2,1.4,5.5,0.8z"/>
						<path class="st0" d="M5.7,2.1c0-0.5-0.1-0.9-0.3-1.3C4.9,0.3,4.1,0,3.3,0C1.5,0,0,1.5,0,3.3c0,0.4,0.1,0.8,0.2,1.2
							c0.6,0.5,1.3,0.8,2.2,0.8C4.3,5.4,5.7,3.9,5.7,2.1z"/>
					</g>
					<rect x="2" y="6.1" class="st1" width="2.8" height="1"/>
					<rect x="1.3" y="6.9" class="st0" width="4.5" height="0.8"/>
				</g>
				<rect x="1.3" y="7.6" class="st2" width="4.5" height="1.7"/>
				<path class="st3" d="M6.6,9.8c0,0,0.5-1.2,0.7-2.1c0.3-0.9,0.5-1.1,2.8-1c2.3,0,21,0.3,21,0.3l0.8,2.5L6.6,9.8z"/>
				<rect x="13.1" y="2.3" class="st1" width="2.1" height="2.5"/>
				<path class="st3" d="M10.9,6L10.9,6C9.5,6,8.4,5,8.4,3.6V3.3c0-1.3,1.1-2.4,2.4-2.4h0c1.3,0,2.4,1.1,2.4,2.4v0.3
					C13.3,5,12.2,6,10.9,6z"/>
				<path class="st2" d="M10.9,5.1L10.9,5.1c-0.9,0-1.7-0.8-1.7-1.7v0c0-0.9,0.8-1.7,1.7-1.7h0c0.9,0,1.7,0.8,1.7,1.7v0
					C12.6,4.4,11.8,5.1,10.9,5.1z"/>
				<rect x="9.4" y="6" class="st2" width="3.2" height="0.6"/>
				<path class="st0" d="M33,8.2h-0.2v6.9H33c1.9,0,3.4-1.5,3.4-3.4S34.9,8.2,33,8.2z"/>
				<path class="st3" d="M18.5,13.3c0,0,0,3.8-2.9,4.2c-2.6,0.3-6.4-0.2-6.4-0.2v1.2c0,0,5.1,0.5,7.4,0c1.8-0.4,2.8-2.5,3-5.1
					S18.5,13.3,18.5,13.3z"/>
				<g>
					<g>
						<path class="st3" d="M0.4,9l0.1,2.5c1.3,0.3,3.5,0.9,4.2,1c1,0.2,2.2,0.2,1.3,2.6c-0.8,2.4-2.7,7.9-2.5,8.9
							c0,0.2,0.2,0.5,0.3,0.7C5.9,25.4,9.2,26,9.2,26l0.4-1.1c0,0-0.6-0.3-0.8-0.5c0,0-2.7-1-1.5-4.2c0.5-1.3,1.9-1.7,2.8-1.8
							c0.1-0.3,0.3-0.6,0.4-0.8c0.8-1.5,1-3.1,3.5-3.2c2.5-0.1,18.9-0.1,18.9-0.1V9H0.4z"/>
						<path class="st2" d="M6,15.1c0.8-2.4-0.4-2.4-1.3-2.6c-0.7-0.2-3-0.7-4.2-1l0,0.9c0,0,2.6,0.6,3.9,1s0.7,1.6,0.4,2.5
							c-0.5,1.4-2.4,5.8-2.6,7.5c-0.1,0.3-0.1,0.7,1.3,1.3c0.1,0,0.2,0.1,0.4,0.1c-0.2-0.3-0.3-0.5-0.3-0.7C3.3,23,5.2,17.5,6,15.1z
							"/>
					</g>
					<path class="st2" d="M7.4,20.2c-1.2,3.3,1.5,4.2,1.5,4.2c-0.3-0.2-0.5-0.5-0.2-1.5c0.3-1.2,1-3.2,1.5-4.5
						C9.3,18.6,7.9,18.9,7.4,20.2z"/>
				</g>
			</g>
			<path class="st2" d="M22.9,8.2h-7.5c-0.7,0-1.3,0.6-1.3,1.3v0.7c0,0.7,0.6,1.3,1.3,1.3H21L22.9,8.2z"/>
			<polygon class="st2" points="25.5,6.8 21,14.9 33,15.1 33,8.2 31.5,8.1 31.1,6.9 			"/>
			<path class="st3" d="M28,9.1h-4.7c-0.2,0-0.5-0.2-0.5-0.5l0,0c0-0.2,0.2-0.5,0.5-0.5H28c0.2,0,0.5,0.2,0.5,0.5l0,0
				C28.5,8.9,28.3,9.1,28,9.1z"/>
			<path class="st3" d="M28,10.3h-5.9v0.9H28c0.2,0,0.5-0.2,0.5-0.5C28.5,10.5,28.3,10.3,28,10.3z"/>
			<path class="st3" d="M28,12.7h-7v0.9h7c0.2,0,0.5-0.2,0.5-0.5C28.5,12.9,28.3,12.7,28,12.7z"/>
			<g>
				<path class="st0" d="M16.1,3.8c0.7,1,2.6,1,3.6,1c2.8,0,10.8,0.3,12.8-0.1c1.6-0.3,2.4-1.7,1.4-3c-0.4-0.5-0.8-0.8-1.1-1h-16
					c0,0,0,0,0,0C15.9,1.6,15.4,2.8,16.1,3.8z"/>
				<path class="st1" d="M14.1,3.5c0,1.5,1.2,2.6,2.6,2.6h16.5c1.5,0,2.6-1.2,2.6-2.6c0-1.5-1.2-2.6-2.6-2.6h-0.5
					c0.4,0.2,0.8,0.5,1.1,1c0.9,1.3,0.1,2.7-1.4,3c-2,0.4-9.9,0.1-12.8,0.1c-1,0-3,0-3.6-1c-0.7-1-0.2-2.3,0.6-3
					C15.2,0.8,14.1,2,14.1,3.5z"/>
			</g>
		</g>
		<path class="st4" d="M3.8,1.9c0,0.6-0.5,1-1.1,1s-1.1-0.5-1.1-1c0-0.6,0.5-1,1.1-1S3.8,1.3,3.8,1.9z"/>
		<ellipse class="st4" cx="17.4" cy="2.1" rx="0.8" ry="0.8"/>
	</g>
	<path class="st5" d="M39.3,11.1c4.8-0.6,10.4-1.7,10.2-0.2C49.3,12.4,39.3,11.1,39.3,11.1z"/>
	<path class="st5" d="M45.1,12.7c1.4,0.3,4.3,0,4.8,1.1C50.4,14.7,47.2,14.1,45.1,12.7z"/>
</g>
</svg>
